# File created by Blade
# Date/Time:  Thu Sep 25 18:58:07 2014
# Frame Rate: 120.000 fps
#------------------------------------------------------
:FULLY-SPECIFIED
:DEGREES
1757
root 1.526213 32.827369 0.293849 7.245616 3.088213 -0.094687
Spine -10.263271 4.269158 -2.649344
Head -6.582679 -8.026878 13.199322
LeftShoulder 16.624896 -2.829514 11.488725
LeftArm 98.225582 49.161585 -16.666250
LeftForeArm 7.105650 0.000000 16.182531
LeftHand -23.463792 0.000000 -14.005462
LeftHandThumb1 -26.253704 0.000000 33.147579
RightShoulder 5.165978 27.342706 -7.886992
RightArm 44.972153 -59.970948 65.675564
RightForeArm -19.662945 -0.000000 11.845028
RightHand -1.825213 -0.000000 33.836758
RightHandThumb1 -24.326973 -0.000000 -32.862282
LeftUpLeg -3.411449 10.354996 3.525723
LeftLeg -3.632326 -0.000000 0.000000
LeftFoot -3.683590 -5.242521 -17.674308
LeftToeBase 8.911643 -0.000000 -0.000000
RightUpLeg -2.989460 -12.371647 -6.013550
RightLeg -0.609044 -0.000000 0.000000
RightFoot -3.605291 -1.649017 3.469478
RightToeBase -2.738749 -0.000000 0.000000
1758
root 1.529191 32.827012 0.293943 7.242526 3.082775 -0.093552
Spine -10.277854 4.268906 -2.648133
Head -6.550668 -8.000844 13.194874
LeftShoulder 16.614658 -2.798193 11.491139
LeftArm 98.259036 49.197880 -16.647150
LeftForeArm 7.095145 -0.000000 16.181348
LeftHand -23.501076 -0.000000 -13.976961
LeftHandThumb1 -26.253704 0.000000 33.147579
RightShoulder 5.130778 27.271477 -7.888137
RightArm 44.931030 -59.967970 65.723341
RightForeArm -19.693916 -0.000000 11.852241
RightHand -1.950405 -0.000000 34.198875
RightHandThumb1 -24.326973 -0.000000 -32.862282
LeftUpLeg -3.406018 10.330295 3.522027
LeftLeg -3.634130 -0.000000 0.000000
LeftFoot -3.688594 -5.218636 -17.641152
LeftToeBase 8.838302 -0.000000 -0.000000
RightUpLeg -2.989159 -12.372105 -6.021263
RightLeg -0.603690 -0.000000 0.000000
RightFoot -3.615337 -1.646562 3.476544
RightToeBase -2.711318 -0.000000 0.000000
1759
root 1.531737 32.826634 0.294149 7.239230 3.068967 -0.085262
Spine -10.289270 4.286227 -2.667580
Head -6.526248 -8.001099 13.212509
LeftShoulder 16.615101 -2.777735 11.499886
LeftArm 98.269759 49.236090 -16.651023
LeftForeArm 7.138564 -0.000000 16.194314
LeftHand -23.552111 0.000000 -14.122730
LeftHandThumb1 -26.253704 0.000000 33.147579
RightShoulder 5.116151 27.252886 -7.853369
RightArm 44.785299 -59.985945 65.841236
RightForeArm -19.645040 0.000000 11.857045
RightHand -1.973408 -0.000000 34.170383
RightHandThumb1 -24.326973 -0.000000 -32.862282
LeftUpLeg -3.397143 10.326980 3.510025
LeftLeg -3.637237 -0.000000 0.000000
LeftFoot -3.690407 -5.209152 -17.655031
LeftToeBase 8.872973 -0.000000 -0.000000
RightUpLeg -2.983004 -12.349902 -6.036653
RightLeg -0.609925 -0.000000 0.000000
RightFoot -3.613897 -1.653452 3.473219
RightToeBase -2.717055 -0.000000 0.000000
1760
root 1.535249 32.826856 0.294226 7.237423 3.063757 -0.071860
Spine -10.303873 4.296289 -2.686720
Head -6.489563 -7.995868 13.222779
LeftShoulder 16.611422 -2.767578 11.511055
LeftArm 98.343858 49.276775 -16.575005
LeftForeArm 7.027203 0.000000 16.220007
LeftHand -23.671619 -0.000000 -14.186244
LeftHandThumb1 -26.253704 0.000000 33.147579
RightShoulder 5.101858 27.203717 -7.810579
RightArm 44.665593 -59.968231 65.940435
RightForeArm -19.379369 -0.000000 11.860330
RightHand -2.124556 0.000000 34.439344
RightHandThumb1 -24.326973 -0.000000 -32.862282
LeftUpLeg -3.396444 10.319363 3.490614
LeftLeg -3.631463 -0.000000 0.000000
LeftFoot -3.703857 -5.192817 -17.663672
LeftToeBase 8.940836 -0.000000 -0.000000
RightUpLeg -2.981010 -12.352721 -6.056971
RightLeg -0.610479 -0.000000 0.000000
RightFoot -3.614538 -1.647501 3.475105
RightToeBase -2.710693 -0.000000 0.000000
1761
root 1.534086 32.826705 0.295601 7.228412 3.052970 -0.088194
Spine -10.309435 4.307040 -2.679212
Head -6.459889 -7.988197 13.234262
LeftShoulder 16.605662 -2.743779 11.519783
LeftArm 98.409390 49.305732 -16.519884
LeftForeArm 6.940982 -0.000000 16.206695
LeftHand -23.820659 -0.000000 -14.126981
LeftHandThumb1 -26.253704 0.000000 33.147579
RightShoulder 5.077706 27.157131 -7.798937
RightArm 44.510468 -59.953289 66.094994
RightForeArm -19.449744 0.000000 11.860074
RightHand -2.199187 -0.000000 34.733723
RightHandThumb1 -24.326973 -0.000000 -32.862282
LeftUpLeg -3.381994 10.326161 3.512198
LeftLeg -3.634989 -0.000000 0.000000
LeftFoot -3.706879 -5.205248 -17.677326
LeftToeBase 8.892800 -0.000000 -0.000000
RightUpLeg -2.972742 -12.351658 -6.040401
RightLeg -0.612265 -0.000000 0.000000
RightFoot -3.601169 -1.640926 3.476908
RightToeBase -2.745754 -0.000000 0.000000
1762
root 1.536113 32.826952 0.295511 7.230486 3.044826 -0.079261
Spine -10.321950 4.311814 -2.693846
Head -6.435024 -7.973315 13.251424
LeftShoulder 16.592894 -2.733176 11.522141
LeftArm 98.479873 49.344965 -16.463915
LeftForeArm 6.911147 -0.000000 16.216750
LeftHand -23.962731 0.000000 -14.184589
LeftHandThumb1 -26.253704 0.000000 33.147579
RightShoulder 5.058602 27.140797 -7.784954
RightArm 44.304038 -59.957631 66.293008
RightForeArm -19.649769 -0.000000 11.848593
RightHand -2.129285 -0.000000 34.693968
RightHandThumb1 -24.326973 -0.000000 -32.862282
LeftUpLeg -3.382122 10.330212 3.499531
LeftLeg -3.632917 -0.000000 0.000000
LeftFoot -3.698546 -5.203678 -17.662175
LeftToeBase 8.853601 -0.000000 -0.000000
RightUpLeg -2.976140 -12.353500 -6.052225
RightLeg -0.612482 -0.000000 0.000000
RightFoot -3.602252 -1.630326 3.477535
RightToeBase -2.728745 -0.000000 0.000000
1763
root 1.538143 32.827133 0.294791 7.229303 3.039159 -0.081945
Spine -10.329139 4.311299 -2.688480
Head -6.407445 -7.957388 13.245587
LeftShoulder 16.593641 -2.721941 11.526685
LeftArm 98.539867 49.387661 -16.420192
LeftForeArm 6.635626 0.000000 16.196699
LeftHand -23.943275 -0.000000 -14.190632
LeftHandThumb1 -26.253704 0.000000 33.147579
RightShoulder 5.043090 27.074388 -7.763418
RightArm 44.258901 -59.948712 66.337873
RightForeArm -19.611550 -0.000000 11.836697
RightHand -2.075209 -0.000000 34.676546
RightHandThumb1 -24.326973 -0.000000 -32.862282
LeftUpLeg -3.382091 10.327048 3.499037
LeftLeg -3.631575 -0.000000 0.000000
LeftFoot -3.709153 -5.194211 -17.669397
LeftToeBase 8.870735 -0.000000 -0.000000
RightUpLeg -2.971774 -12.343611 -6.061117
RightLeg -0.610813 -0.000000 0.000000
RightFoot -3.592917 -1.652007 3.453149
RightToeBase -2.739336 -0.000000 0.000000
1764
root 1.544528 32.826693 0.290653 7.238767 3.033105 -0.071317
Spine -10.337059 4.321288 -2.678636
Head -6.388817 -7.946069 13.227369
LeftShoulder 16.602374 -2.709635 11.519344
LeftArm 98.560380 49.422323 -16.430949
LeftForeArm 6.582664 0.000000 16.165812
LeftHand -23.850715 0.000000 -14.078485
LeftHandThumb1 -26.253704 0.000000 33.147579
RightShoulder 5.014995 27.051281 -7.769499
RightArm 44.124100 -59.902826 66.491781
RightForeArm -19.419998 -0.000000 11.816357
RightHand -2.319877 -0.000000 34.970256
RightHandThumb1 -24.326973 -0.000000 -32.862282
LeftUpLeg -3.397563 10.308226 3.472893
LeftLeg -3.629337 -0.000000 0.000000
LeftFoot -3.741314 -5.154390 -17.613931
LeftToeBase 8.930952 -0.000000 -0.000000
RightUpLeg -2.997681 -12.346143 -6.078805
RightLeg -0.600678 -0.000000 0.000000
RightFoot -3.598949 -1.602396 3.527225
RightToeBase -2.716713 -0.000000 0.000000
1765
root 1.547595 32.826463 0.289020 7.242661 3.025213 -0.073334
Spine -10.347394 4.320714 -2.665415
Head -6.347633 -7.911868 13.213557
LeftShoulder 16.591405 -2.696888 11.514869
LeftArm 98.556187 49.465667 -16.473162
LeftForeArm 6.610580 -0.000000 16.146516
LeftHand -23.781152 -0.000000 -13.980757
LeftHandThumb1 -26.253704 0.000000 33.147579
RightShoulder 5.017715 27.007742 -7.766888
RightArm 43.950765 -59.844528 66.679401
RightForeArm -19.450470 -0.000000 11.799575
RightHand -2.328371 -0.000000 35.162899
RightHandThumb1 -24.326973 -0.000000 -32.862282
LeftUpLeg -3.408050 10.302798 3.461390
LeftLeg -3.607730 -0.000000 0.000000
LeftFoot -3.766067 -5.113422 -17.690818
LeftToeBase 8.938271 -0.000000 -0.000000
RightUpLeg -3.009636 -12.352569 -6.081073
RightLeg -0.592906 -0.000000 0.000000
RightFoot -3.593476 -1.575308 3.526316
RightToeBase -2.738482 -0.000000 0.000000
1766
root 1.548474 32.826287 0.287122 7.245342 3.027511 -0.077505
Spine -10.353211 4.321463 -2.654512
Head -6.316981 -7.893566 13.208557
LeftShoulder 16.608790 -2.687406 11.502276
LeftArm 98.500918 49.506727 -16.547587
LeftForeArm 6.618888 -0.000000 16.162457
LeftHand -23.715584 -0.000000 -13.822612
LeftHandThumb1 -26.253704 0.000000 33.147579
RightShoulder 4.994949 26.997746 -7.786390
RightArm 43.762646 -59.820935 66.872394
RightForeArm -19.565788 0.000000 11.802493
RightHand -2.343716 0.000000 35.454687
RightHandThumb1 -24.326973 -0.000000 -32.862282
LeftUpLeg -3.417595 10.320289 3.468880
LeftLeg -3.611427 -0.000000 0.000000
LeftFoot -3.747655 -5.172631 -17.640383
LeftToeBase 8.898864 -0.000000 -0.000000
RightUpLeg -3.015511 -12.345673 -6.077281
RightLeg -0.591606 -0.000000 0.000000
RightFoot -3.590968 -1.600153 3.507613
RightToeBase -2.729132 -0.000000 0.000000
1767
root 1.549839 32.826030 0.285143 7.247288 3.025656 -0.076794
Spine -10.360679 4.318207 -2.645833
Head -6.274353 -7.878299 13.192840
LeftShoulder 16.618817 -2.682184 11.489731
LeftArm 98.476746 49.553495 -16.576513
LeftForeArm 6.626506 -0.000000 16.167388
LeftHand -23.752112 -0.000000 -13.718129
LeftHandThumb1 -26.253704 0.000000 33.147579
RightShoulder 5.000329 26.958522 -7.778204
RightArm 43.656354 -59.794075 66.980119
RightForeArm -19.610397 0.000000 11.790337
RightHand -2.305541 -0.000000 35.307286
RightHandThumb1 -24.326973 -0.000000 -32.862282
LeftUpLeg -3.425754 10.320595 3.465329
LeftLeg -3.605259 -0.000000 0.000000
LeftFoot -3.749000 -5.184375 -17.651743
LeftToeBase 8.898424 -0.000000 -0.000000
RightUpLeg -3.022950 -12.346746 -6.078848
RightLeg -0.588510 -0.000000 0.000000
RightFoot -3.592961 -1.600625 3.534800
RightToeBase -2.742900 -0.000000 0.000000
1768
root 1.551112 32.825877 0.283058 7.245385 3.013832 -0.076662
Spine -10.359756 4.327771 -2.645058
Head -6.237255 -7.867913 13.197976
LeftShoulder 16.639926 -2.679939 11.488859
LeftArm 98.452793 49.600353 -16.616373
LeftForeArm 6.601997 -0.000000 16.165034
LeftHand -23.722360 -0.000000 -13.724917
LeftHandThumb1 -26.253704 0.000000 33.147579
RightShoulder 4.984500 26.932729 -7.776186
RightArm 43.549719 -59.770018 67.095438
RightForeArm -19.701005 -0.000000 11.779648
RightHand -2.329385 -0.000000 35.342072
RightHandThumb1 -24.326973 -0.000000 -32.862282
LeftUpLeg -3.427597 10.335582 3.460587
LeftLeg -3.601447 -0.000000 0.000000
LeftFoot -3.757891 -5.181047 -17.641179
LeftToeBase 8.930258 -0.000000 -0.000000
RightUpLeg -3.031107 -12.331812 -6.082203
RightLeg -0.578996 -0.000000 0.000000
RightFoot -3.596544 -1.604849 3.538788
RightToeBase -2.741170 -0.000000 0.000000
